<!-- animated SVG made possible by www.svgator.com -->

<svg xmlns="http://www.w3.org/2000/svg" id="eShmpewIYQR1" viewBox="0 0 700 400" shape-rendering="geometricPrecision" text-rendering="geometricPrecision">
  <style>
#eShmpewIYQR3 {opacity: 1}
#eShmpewIYQR44_to {transform: translate(350.166489px,230.189539px)}
#eShmpewIYQR44_ts {transform: scale(0.669349,0.669349)}
#eShmpewIYQR44 {opacity: 1; animation: eShmpewIYQR44_shadow 5000ms ease-in-out infinite}
@keyframes eShmpewIYQR44_shadow {
  0%, 100% {opacity: 1}
  35%, 55% {opacity: 0.17}
}
#eShmpewIYQR45,
#eShmpewIYQR48,
#eShmpewIYQR81,
#eShmpewIYQR82 {opacity: 1}
#eShmpewIYQR47_to {transform: translate(350.166489px,230.189539px); animation: eShmpewIYQR47_float 5000ms ease-in-out infinite}
@keyframes eShmpewIYQR47_float {
  0%, 100% {transform: translate(350.166489px,230.189539px)}
  35%, 55% {transform: translate(350.166489px,170.189539px)}
}
#eShmpewIYQR47_tr {transform: rotate(0deg); animation: eShmpewIYQR47_tilt 5000ms ease-in-out infinite}
@keyframes eShmpewIYQR47_tilt {
  0%, 100% {transform: rotate(0deg)}
  40% {transform: rotate(-3deg)}
  55% {transform: rotate(2deg)}
  70% {transform: rotate(-1deg)}
  80% {transform: rotate(0deg)}
}
#eShmpewIYQR47_ts {transform: scale(0.669349,0.669349)}
#eShmpewIYQR77_ts {transform: translate(350.000008px,220.000008px) scale(1.000001,0.25)}
#eShmpewIYQR78_tr {transform: translate(349.999992px,219.999977px) rotate(0deg); animation: eShmpewIYQR78_spin 5000ms linear infinite}
@keyframes eShmpewIYQR78_spin {
  0% {transform: translate(349.999992px,219.999977px) rotate(0deg)}
  100% {transform: translate(349.999992px,219.999977px) rotate(2880deg)}
}
#eShmpewIYQR83_tr {transform: translate(349.999992px,219.999977px) rotate(720deg); animation: eShmpewIYQR83_spin 5000ms linear infinite}
@keyframes eShmpewIYQR83_spin {
  0% {transform: translate(349.999992px,219.999977px) rotate(720deg)}
  100% {transform: translate(349.999992px,219.999977px) rotate(3600deg)}
}
</style>
  <defs>
    <radialGradient id="eShmpewIYQR7-fill" cx="0" cy="0" r="24.97" spreadMethod="pad" gradientUnits="userSpaceOnUse" gradientTransform="translate(472.34 215.4)">
      <stop id="eShmpewIYQR7-fill-0" offset="53%" stop-color="#dadada" />
      <stop id="eShmpewIYQR7-fill-1" offset="100%" stop-color="#cacbcc" />
    </radialGradient>
    <radialGradient id="eShmpewIYQR8-fill" cx="0" cy="0" r="21.18" spreadMethod="pad" gradientUnits="userSpaceOnUse" gradientTransform="translate(474.81 222.45)">
      <stop id="eShmpewIYQR8-fill-0" offset="53%" stop-color="#bebebe" />
      <stop id="eShmpewIYQR8-fill-1" offset="100%" stop-color="#b0b0b1" />
    </radialGradient>
    <linearGradient id="eShmpewIYQR10-fill" x1="483.62" y1="197.14" x2="499.92" y2="197.14" spreadMethod="pad" gradientUnits="userSpaceOnUse" gradientTransform="translate(0 0)">
      <stop id="eShmpewIYQR10-fill-0" offset="0%" stop-color="rgba(19,12,12,0)" />
      <stop id="eShmpewIYQR10-fill-1" offset="100%" stop-color="rgba(19,12,12,0.5)" />
    </linearGradient>
    <radialGradient id="eShmpewIYQR15-fill" cx="0" cy="0" r="7.21" spreadMethod="pad" gradientUnits="userSpaceOnUse" gradientTransform="translate(483.62 176.47)">
      <stop id="eShmpewIYQR15-fill-0" offset="53%" stop-color="#bebebe" />
      <stop id="eShmpewIYQR15-fill-1" offset="100%" stop-color="#b0b0b1" />
    </radialGradient>
    <radialGradient id="eShmpewIYQR18-fill" cx="0" cy="0" r="24.97" spreadMethod="pad" gradientUnits="userSpaceOnUse" gradientTransform="matrix(-1 0 0 1 227.66 215.4)">
      <stop id="eShmpewIYQR18-fill-0" offset="53%" stop-color="#dadada" />
      <stop id="eShmpewIYQR18-fill-1" offset="100%" stop-color="#cacbcc" />
    </radialGradient>
    <radialGradient id="eShmpewIYQR19-fill" cx="0" cy="0" r="21.18" spreadMethod="pad" gradientUnits="userSpaceOnUse" gradientTransform="matrix(-1 0 0 1 225.18 222.45)">
      <stop id="eShmpewIYQR19-fill-0" offset="53%" stop-color="#bebebe" />
      <stop id="eShmpewIYQR19-fill-1" offset="100%" stop-color="#b0b0b1" />
    </radialGradient>
    <linearGradient id="eShmpewIYQR21-fill" x1="216.37" y1="197.14" x2="200.08" y2="197.14" spreadMethod="pad" gradientUnits="userSpaceOnUse" gradientTransform="translate(0 0)">
      <stop id="eShmpewIYQR21-fill-0" offset="0%" stop-color="rgba(19,12,12,0)" />
      <stop id="eShmpewIYQR21-fill-1" offset="100%" stop-color="rgba(19,12,12,0.5)" />
    </linearGradient>
    <radialGradient id="eShmpewIYQR26-fill" cx="0" cy="0" r="7.21" spreadMethod="pad" gradientUnits="userSpaceOnUse" gradientTransform="matrix(-1 0 0 1 216.37 176.47)">
      <stop id="eShmpewIYQR26-fill-0" offset="53%" stop-color="#bebebe" />
      <stop id="eShmpewIYQR26-fill-1" offset="100%" stop-color="#b0b0b1" />
    </radialGradient>
    <linearGradient id="eShmpewIYQR27-fill" x1="350" y1="233.54" x2="350" y2="189.18" spreadMethod="pad" gradientUnits="userSpaceOnUse" gradientTransform="translate(0 0)">
      <stop id="eShmpewIYQR27-fill-0" offset="6%" stop-color="#e4e0e7" />
      <stop id="eShmpewIYQR27-fill-1" offset="53%" stop-color="#ededed" />
      <stop id="eShmpewIYQR27-fill-2" offset="100%" stop-color="#dedddf" />
    </linearGradient>
    <radialGradient id="eShmpewIYQR29-fill" cx="0" cy="0" r="32.01" spreadMethod="pad" gradientUnits="userSpaceOnUse" gradientTransform="matrix(1 0 0 0.85 420.69 287.684)">
      <stop id="eShmpewIYQR29-fill-0" offset="53%" stop-color="#dadada" />
      <stop id="eShmpewIYQR29-fill-1" offset="100%" stop-color="#cacbcc" />
    </radialGradient>
    <radialGradient id="eShmpewIYQR31-fill" cx="0" cy="0" r="32.01" spreadMethod="pad" gradientUnits="userSpaceOnUse" gradientTransform="matrix(-1 0 0 0.85 274.95 287.684)">
      <stop id="eShmpewIYQR31-fill-0" offset="53%" stop-color="#dadada" />
      <stop id="eShmpewIYQR31-fill-1" offset="100%" stop-color="#cacbcc" />
    </radialGradient>
    <linearGradient id="eShmpewIYQR32-fill" x1="350" y1="255.35" x2="350" y2="225.92" spreadMethod="pad" gradientUnits="userSpaceOnUse" gradientTransform="translate(0 0)">
      <stop id="eShmpewIYQR32-fill-0" offset="6%" stop-color="#e4e0e7" />
      <stop id="eShmpewIYQR32-fill-1" offset="53%" stop-color="#ededed" />
      <stop id="eShmpewIYQR32-fill-2" offset="100%" stop-color="#dedddf" />
    </linearGradient>
    <linearGradient id="eShmpewIYQR33-fill" x1="350" y1="284.96" x2="350" y2="250.75" spreadMethod="pad" gradientUnits="userSpaceOnUse" gradientTransform="translate(0 0)">
      <stop id="eShmpewIYQR33-fill-0" offset="40%" stop-color="#bebebe" />
      <stop id="eShmpewIYQR33-fill-1" offset="100%" stop-color="#979595" />
    </linearGradient>
    <radialGradient id="eShmpewIYQR35-fill" cx="0" cy="0" r="82.49" spreadMethod="pad" gradientUnits="userSpaceOnUse" gradientTransform="translate(350 237.07)">
      <stop id="eShmpewIYQR35-fill-0" offset="0%" stop-color="#e4e0e7" />
      <stop id="eShmpewIYQR35-fill-1" offset="100%" stop-color="#dedddf" />
    </radialGradient>
    <radialGradient id="eShmpewIYQR36-fill" cx="0" cy="0" r="47.08" spreadMethod="pad" gradientUnits="userSpaceOnUse" gradientTransform="translate(0 0)">
      <stop id="eShmpewIYQR36-fill-0" offset="53%" stop-color="#dadada" />
      <stop id="eShmpewIYQR36-fill-1" offset="100%" stop-color="#cacbcc" />
    </radialGradient>
    <radialGradient id="eShmpewIYQR37-fill" cx="0" cy="0" r="40.8" spreadMethod="pad" gradientUnits="userSpaceOnUse" gradientTransform="translate(0 0)">
      <stop id="eShmpewIYQR37-fill-0" offset="53%" stop-color="#fafafa" />
      <stop id="eShmpewIYQR37-fill-1" offset="100%" stop-color="#e8eaeb" />
    </radialGradient>
    <radialGradient id="eShmpewIYQR43-fill" cx="0" cy="0" r="87.82" spreadMethod="pad" gradientUnits="userSpaceOnUse" gradientTransform="matrix(1.81 0 0 0.25 0.5419 -5.855)">
      <stop id="eShmpewIYQR43-fill-0" offset="0%" stop-color="rgba(161,160,160,0.38)" />
      <stop id="eShmpewIYQR43-fill-1" offset="100%" stop-color="rgba(161,160,160,0)" />
    </radialGradient>
    <radialGradient id="eShmpewIYQR46-fill" cx="0" cy="0" r="87.82" spreadMethod="pad" gradientUnits="userSpaceOnUse" gradientTransform="matrix(1.81 0 0 0.25 0.5419 -5.855)">
      <stop id="eShmpewIYQR46-fill-0" offset="0%" stop-color="rgba(161,160,160,0.38)" />
      <stop id="eShmpewIYQR46-fill-1" offset="100%" stop-color="rgba(161,160,160,0)" />
    </radialGradient>
    <radialGradient id="eShmpewIYQR50-fill" cx="0" cy="0" r="24.97" spreadMethod="pad" gradientUnits="userSpaceOnUse" gradientTransform="translate(472.34 215.4)">
      <stop id="eShmpewIYQR50-fill-0" offset="53%" stop-color="#dadada" />
      <stop id="eShmpewIYQR50-fill-1" offset="100%" stop-color="#cacbcc" />
    </radialGradient>
    <radialGradient id="eShmpewIYQR51-fill" cx="0" cy="0" r="21.18" spreadMethod="pad" gradientUnits="userSpaceOnUse" gradientTransform="translate(474.81 222.45)">
      <stop id="eShmpewIYQR51-fill-0" offset="53%" stop-color="#bebebe" />
      <stop id="eShmpewIYQR51-fill-1" offset="100%" stop-color="#b0b0b1" />
    </radialGradient>
    <linearGradient id="eShmpewIYQR53-fill" x1="483.62" y1="197.14" x2="499.92" y2="197.14" spreadMethod="pad" gradientUnits="userSpaceOnUse" gradientTransform="translate(0 0)">
      <stop id="eShmpewIYQR53-fill-0" offset="0%" stop-color="rgba(19,12,12,0)" />
      <stop id="eShmpewIYQR53-fill-1" offset="100%" stop-color="rgba(19,12,12,0.5)" />
    </linearGradient>
    <radialGradient id="eShmpewIYQR56-fill" cx="0" cy="0" r="24.97" spreadMethod="pad" gradientUnits="userSpaceOnUse" gradientTransform="matrix(-1 0 0 1 227.66 215.4)">
      <stop id="eShmpewIYQR56-fill-0" offset="53%" stop-color="#dadada" />
      <stop id="eShmpewIYQR56-fill-1" offset="100%" stop-color="#cacbcc" />
    </radialGradient>
    <radialGradient id="eShmpewIYQR57-fill" cx="0" cy="0" r="21.18" spreadMethod="pad" gradientUnits="userSpaceOnUse" gradientTransform="matrix(-1 0 0 1 225.18 222.45)">
      <stop id="eShmpewIYQR57-fill-0" offset="53%" stop-color="#bebebe" />
      <stop id="eShmpewIYQR57-fill-1" offset="100%" stop-color="#b0b0b1" />
    </radialGradient>
    <linearGradient id="eShmpewIYQR59-fill" x1="216.37" y1="197.14" x2="200.08" y2="197.14" spreadMethod="pad" gradientUnits="userSpaceOnUse" gradientTransform="translate(0 0)">
      <stop id="eShmpewIYQR59-fill-0" offset="0%" stop-color="rgba(19,12,12,0)" />
      <stop id="eShmpewIYQR59-fill-1" offset="100%" stop-color="rgba(19,12,12,0.5)" />
    </linearGradient>
    <linearGradient id="eShmpewIYQR61-fill" x1="350" y1="233.54" x2="350" y2="189.18" spreadMethod="pad" gradientUnits="userSpaceOnUse" gradientTransform="translate(0 0)">
      <stop id="eShmpewIYQR61-fill-0" offset="6%" stop-color="#e4e0e7" />
      <stop id="eShmpewIYQR61-fill-1" offset="53%" stop-color="#ededed" />
      <stop id="eShmpewIYQR61-fill-2" offset="100%" stop-color="#dedddf" />
    </linearGradient>
    <radialGradient id="eShmpewIYQR63-fill" cx="0" cy="0" r="32.01" spreadMethod="pad" gradientUnits="userSpaceOnUse" gradientTransform="matrix(1 0 0 0.85 420.69 287.684)">
      <stop id="eShmpewIYQR63-fill-0" offset="53%" stop-color="#dadada" />
      <stop id="eShmpewIYQR63-fill-1" offset="100%" stop-color="#cacbcc" />
    </radialGradient>
    <radialGradient id="eShmpewIYQR65-fill" cx="0" cy="0" r="32.01" spreadMethod="pad" gradientUnits="userSpaceOnUse" gradientTransform="matrix(-1 0 0 0.85 274.95 287.684)">
      <stop id="eShmpewIYQR65-fill-0" offset="53%" stop-color="#dadada" />
      <stop id="eShmpewIYQR65-fill-1" offset="100%" stop-color="#cacbcc" />
    </radialGradient>
    <linearGradient id="eShmpewIYQR66-fill" x1="350" y1="255.35" x2="350" y2="225.92" spreadMethod="pad" gradientUnits="userSpaceOnUse" gradientTransform="translate(0 0)">
      <stop id="eShmpewIYQR66-fill-0" offset="6%" stop-color="#cac7cc" />
      <stop id="eShmpewIYQR66-fill-1" offset="84%" stop-color="#ededed" />
      <stop id="eShmpewIYQR66-fill-2" offset="100%" stop-color="#dbd6df" />
    </linearGradient>
    <linearGradient id="eShmpewIYQR67-fill" x1="350" y1="284.96" x2="350" y2="250.75" spreadMethod="pad" gradientUnits="userSpaceOnUse" gradientTransform="translate(0 0)">
      <stop id="eShmpewIYQR67-fill-0" offset="40%" stop-color="#bebebe" />
      <stop id="eShmpewIYQR67-fill-1" offset="100%" stop-color="#979595" />
    </linearGradient>
    <radialGradient id="eShmpewIYQR69-fill" cx="0" cy="0" r="82.49" spreadMethod="pad" gradientUnits="userSpaceOnUse" gradientTransform="translate(350 237.07)">
      <stop id="eShmpewIYQR69-fill-0" offset="0%" stop-color="#e4e0e7" />
      <stop id="eShmpewIYQR69-fill-1" offset="100%" stop-color="#dedddf" />
    </radialGradient>
    <radialGradient id="eShmpewIYQR70-fill" cx="0" cy="0" r="47.08" spreadMethod="pad" gradientUnits="userSpaceOnUse" gradientTransform="translate(0 0)">
      <stop id="eShmpewIYQR70-fill-0" offset="53%" stop-color="#dadada" />
      <stop id="eShmpewIYQR70-fill-1" offset="100%" stop-color="#cacbcc" />
    </radialGradient>
    <radialGradient id="eShmpewIYQR71-fill" cx="0" cy="0" r="40.8" spreadMethod="pad" gradientUnits="userSpaceOnUse" gradientTransform="translate(0 0)">
      <stop id="eShmpewIYQR71-fill-0" offset="53%" stop-color="#fafafa" />
      <stop id="eShmpewIYQR71-fill-1" offset="100%" stop-color="#e8eaeb" />
    </radialGradient>
    <radialGradient id="eShmpewIYQR81-fill" cx="0" cy="0" r="7.21" spreadMethod="pad" gradientUnits="userSpaceOnUse" gradientTransform="matrix(-1 0 0 1 216.37 176.47)">
      <stop id="eShmpewIYQR81-fill-0" offset="53%" stop-color="#bebebe" />
      <stop id="eShmpewIYQR81-fill-1" offset="100%" stop-color="#b0b0b1" />
    </radialGradient>
    <radialGradient id="eShmpewIYQR86-fill" cx="0" cy="0" r="7.21" spreadMethod="pad" gradientUnits="userSpaceOnUse" gradientTransform="matrix(-1 0 0 1 216.37 176.47)">
      <stop id="eShmpewIYQR86-fill-0" offset="53%" stop-color="#bebebe" />
      <stop id="eShmpewIYQR86-fill-1" offset="100%" stop-color="#b0b0b1" />
    </radialGradient>
  </defs>
  <g id="eShmpewIYQR3" transform="translate(.000001 0.000001)" opacity="1">
    <g id="eShmpewIYQR44_to" transform="translate(350.166489,230.189539)">
      <g id="eShmpewIYQR44_ts" transform="scale(0.669349,0.669349)">
        <g id="eShmpewIYQR44" transform="translate(-149.999984,-296.919235)">
          <g id="eShmpewIYQR45" transform="matrix(1.5 0 0 1.5-375.030005-48.605728)" opacity="1">
            <ellipse rx="158.81" ry="22.37" transform="translate(350 331.19)" fill="url(#eShmpewIYQR46-fill)" />
          </g>
        </g>
      </g>
    </g>
    <g id="eShmpewIYQR47_to" transform="translate(350.166489,230.189539)">
      <g id="eShmpewIYQR47_tr" transform="rotate(0)">
        <g id="eShmpewIYQR47_ts" transform="scale(0.669349,0.669349)">
          <g transform="translate(-149.999984,-296.919235)">
            <g id="eShmpewIYQR48" transform="matrix(1.5 0 0 1.5-375.030005-48.605728)" opacity="1">
              <g>
                <path d="M442,197.26c12,6.82,18.34,4.71,40.37,4.71c16,0,20.22,4.53,20.22,10.56s-7.55,13.28-22.94,12.37-21.12-3.31-27.75,8.64Z" fill="url(#eShmpewIYQR50-fill)" />
                <path d="M502.63,212.53c.000222-.387448-.019805-.774643-.06-1.16-4.93,4.2-17.52,6-26.49,4.93-10.57-1.2-20.9-2.56-29.09-.9l4.95,18.14c6.63-11.95,12.36-9.54,27.75-8.64s22.94-6.33,22.94-12.37Z" fill="url(#eShmpewIYQR51-fill)" />
                <path d="M483.62,178.13c-9,0-16.29,2.43-16.29,5.43v21.73c0,3,7.29,5.43,16.29,5.43s16.3-2.43,16.3-5.43v-21.73c0-3-7.3-5.43-16.3-5.43Z" fill="#4f5052" />
                <path d="M483.62,189c9,0,16.3-2.43,16.3-5.43v21.73c0,3-7.3,5.43-16.3,5.43Z" fill="url(#eShmpewIYQR53-fill)" />
                <ellipse rx="9.05" ry="3.02" transform="translate(483.62 183.56)" fill="#130c0c" />
              </g>
              <g>
                <path d="M258,197.26c-12,6.82-18.34,4.71-40.37,4.71-16,0-20.22,4.53-20.22,10.56s7.55,13.28,22.94,12.37s21.12-3.31,27.75,8.64Z" fill="url(#eShmpewIYQR56-fill)" />
                <path d="M197.37,212.53c-.000222-.387448.019805-.774643.06-1.16c4.93,4.2,17.52,6,26.49,4.93c10.57-1.2,20.9-2.56,29.09-.9l-4.95,18.14c-6.63-11.95-12.36-9.54-27.75-8.64s-22.94-6.33-22.94-12.37Z" fill="url(#eShmpewIYQR57-fill)" />
                <path d="M216.38,178.13c9,0,16.29,2.43,16.29,5.43v21.73c0,3-7.29,5.43-16.29,5.43s-16.3-2.43-16.3-5.43v-21.73c0-3,7.3-5.43,16.3-5.43Z" fill="#4f5052" />
                <path d="M216.38,189c-9,0-16.3-2.43-16.3-5.43v21.73c0,3,7.3,5.43,16.3,5.43Z" fill="url(#eShmpewIYQR59-fill)" />
                <ellipse rx="9.05" ry="3.02" transform="translate(216.38 183.56)" fill="#130c0c" />
              </g>
              <path d="M435.1,195.21c-56.448482-8.040045-113.751518-8.040045-170.2,0-17.88,2.54-27.24,23-17.11,37.94l.27.39c66.868321-4.820483,135.605291-4.951746,203.88,0l.29-.42c10.1-14.96.77-35.37-17.13-37.91Z" fill="url(#eShmpewIYQR61-fill)" />
              <circle r="4.53" transform="translate(429.91 324.19)" fill="#130c0c" />
              <path d="M407,253.05c9,14.67,18.42,47.84,18.42,71.14h9.05c0,0-.61-35.22-10.11-69.52-8.36-7.4-17.36-1.62-17.36-1.62Z" fill="url(#eShmpewIYQR63-fill)" />
              <circle r="4.53" transform="translate(265.74 324.19)" fill="#130c0c" />
              <path d="M288.69,253.05c-9,14.67-18.42,47.84-18.42,71.14h-9.06c0,0,.62-35.22,10.12-69.52c8.29-7.4,17.36-1.62,17.36-1.62Z" fill="url(#eShmpewIYQR65-fill)" />
              <path d="M451.94,233.54c-67.580266-10.160064-136.299734-10.160064-203.88,0c5.83,8.35,27.34,22.45,27.63,21.79c49.354336-6.119984,99.275664-6.119984,148.63,0-.45.67,21.79-13.44,27.62-21.79Z" fill="url(#eShmpewIYQR66-fill)" />
              <path d="M424.32,255.33C399.64,258.39,383.8,285,350,285s-49.64-26.57-74.31-29.63c49.352689-6.133266,99.274017-6.146701,148.63-.04Z" fill="url(#eShmpewIYQR67-fill)" />
              <g>
                <path style="mix-blend-mode:multiply" d="M435.1,195.21c-56.448482-8.040045-113.751518-8.040045-170.2,0-17.88,2.54-27.24,23-17.11,37.94l.27.39c5.83,8.35,27.34,22.45,27.63,21.79C300.36,258.39,316.2,285,350,285s49.64-26.57,74.32-29.63c-.45.66,21.79-13.44,27.62-21.79l.29-.42c10.1-15,.77-35.41-17.13-37.95ZM285.27,239.84c-6.32-3.09-15.29-7.21-15.86-9.17-9.5-1.06-16.4-7.77-16.4-14.11l-.08.06c.42-8.53,8.6-18.17,20.11-19.68c51.087933-6.7,102.832067-6.7,153.92,0c12,1.57,19.75,11.18,20.08,19.66h-.05c0,6.34-6.9,13.05-16.4,14.11-.57,2-9.5,6.06-15.82,9.15-23.37,8.8-53.58,12.73-64.77,12.73-24.82-.04-64.73-12.75-64.73-12.75Z" opacity="0.38" fill="url(#eShmpewIYQR69-fill)" />
                <circle r="47.08" transform="translate(350 234.26)" fill="url(#eShmpewIYQR70-fill)" />
                <circle r="40.8" transform="translate(350 234.26)" fill="url(#eShmpewIYQR71-fill)" />
                <path d="M327,234.88c0,13,11,22.26,23,22.26s23-9.27,23-22.26c0,13.89-6.18,26.09-23,26.09s-23-12.2-23-26.09Z" fill="#fff" />
                <circle r="21.73" transform="translate(350 234.26)" fill="#312a2a" />
                <circle r="12.67" transform="translate(350 234.26)" fill="#130c0c" />
                <path d="M337.33,234.26c.270291,6.801726,5.862906,12.176512,12.67,12.176512s12.399709-5.374786,12.67-12.176512c0,7.66-5.07,13.3-12.67,13.3s-12.67-5.64-12.67-13.3Z" fill="#4f5052" />
              </g>
              <circle r="2.64" transform="translate(346.01 229.88)" fill="#a1a0a0" />
            </g>
            <g id="eShmpewIYQR77_ts" transform="translate(350.000008,220.000008) scale(1.000001,0.25)">
              <g transform="translate(-350.000008,-220.000008)">
                <g id="eShmpewIYQR78_tr" transform="translate(349.999992,219.999977) rotate(0)">
                  <g transform="scale(1.1,1.1) translate(-349.999992,-199.999977)">
                    <path d="M320.56,145.26c11.39,8,10.19,21.13,10.3,22.87.268928,4.553004,2.201365,8.848496,5.43,12.07l38.28,38.29l21.8,17.89c9.3,7.64,9.55,8.52,58.65,61.71c2.506403,2.719776,2.422598,6.932068-.19,9.55l-75.39-52.9c-11.39-8-10.19-21.13-10.3-22.87-.268928-4.553004-2.201365-8.848496-5.43-12.07l-38.28-38.29-21.8-17.89c-9.3-7.64-9.55-8.52-58.65-61.71-2.506403-2.719776-2.422598-6.932068.19-9.55Z" fill="#130c0c" />
                    <path d="M295.26,229.44c8-11.39,21.13-10.19,22.87-10.3c4.553004-.268928,8.848496-2.201365,12.07-5.43l38.29-38.28l17.89-21.8c7.64-9.3,8.52-9.55,61.71-58.65c2.719776-2.506403,6.932068-2.422598,9.55.19l-52.9,75.39c-8,11.39-21.13,10.19-22.87,10.3-4.553004.268928-8.848496,2.201365-12.07,5.43l-38.29,38.28-17.89,21.8c-7.64,9.3-8.52,9.55-61.71,58.65-2.719776,2.506403-6.932068,2.422598-9.55-.19Z" fill="#130c0c" />
                  </g>
                </g>
                <path id="eShmpewIYQR81" d="M207.33,178.13c0,1.67,4,3,9,3s9.05-1.35,9.05-3-3.55-6.34-9.05-6.34-9,4.67-9,6.34Z" transform="matrix(1.4 0 0 5.6 47.107999-784.363456)" opacity="1" fill="url(#eShmpewIYQR81-fill)" />
              </g>
            </g>
            <g id="eShmpewIYQR82" transform="matrix(1.000001 0 0 0.25-400.497864 165.000006)" opacity="1">
              <g id="eShmpewIYQR83_tr" transform="translate(349.999992,219.999977) rotate(720)">
                <g transform="scale(1.1,1.1) translate(-349.999992,-199.999977)">
                  <path d="M320.56,145.26c11.39,8,10.19,21.13,10.3,22.87.268928,4.553004,2.201365,8.848496,5.43,12.07l38.28,38.29l21.8,17.89c9.3,7.64,9.55,8.52,58.65,61.71c2.506403,2.719776,2.422598,6.932068-.19,9.55l-75.39-52.9c-11.39-8-10.19-21.13-10.3-22.87-.268928-4.553004-2.201365-8.848496-5.43-12.07l-38.28-38.29-21.8-17.89c-9.3-7.64-9.55-8.52-58.65-61.71-2.506403-2.719776-2.422598-6.932068.19-9.55Z" fill="#130c0c" />
                  <path d="M295.26,229.44c8-11.39,21.13-10.19,22.87-10.3c4.553004-.268928,8.848496-2.201365,12.07-5.43l38.29-38.28l17.89-21.8c7.64-9.3,8.52-9.55,61.71-58.65c2.719776-2.506403,6.932068-2.422598,9.55.19l-52.9,75.39c-8,11.39-21.13,10.19-22.87,10.3-4.553004.268928-8.848496,2.201365-12.07,5.43l-38.29,38.28-17.89,21.8c-7.64,9.3-8.52,9.55-61.71,58.65-2.719776,2.506403-6.932068,2.422598-9.55-.19Z" fill="#130c0c" />
                </g>
              </g>
              <path d="M207.33,178.13c0,1.67,4,3,9,3s9.05-1.35,9.05-3-3.55-6.34-9.05-6.34-9,4.67-9,6.34Z" transform="matrix(1.4 0 0 5.6 47.107999-784.363456)" fill="url(#eShmpewIYQR86-fill)" />
            </g>
          </g>
        </g>
      </g>
    </g>
  </g>
</svg>
